<svg version="1.1" id="Layer_1" xmlns="http://www.w3.org/2000/svg" xmlns:xlink="http://www.w3.org/1999/xlink" x="0px" y="0px" width="100%" viewBox="0 0 930 283" enable-background="new 0 0 930 283" xml:space="preserve">

<path fill="#F5F6F6" opacity="1.000000" stroke="none" d="
M530.987183,195.996582 
	C515.087708,215.637695 499.185822,235.276794 483.290985,254.921631 
	C480.351013,258.555145 476.991821,261.176361 472.267426,262.662140 
	C456.516327,267.615692 440.940948,273.127808 425.291931,278.407166 
	C424.540405,278.660706 423.728485,278.735229 421.651031,279.153656 
	C428.727661,255.262024 435.587433,232.102585 442.686981,208.133667 
	C440.296570,208.133667 438.565186,208.133667 436.833771,208.133667 
	C390.029205,208.133667 343.224365,208.060883 296.420532,208.245850 
	C291.721069,208.264404 288.033722,207.011093 285.069885,203.692215 
	C279.641571,197.613663 273.254517,195.197998 264.911011,195.753601 
	C253.800476,196.493439 242.595993,196.175797 231.447357,195.823029 
	C226.729645,195.673752 222.951126,197.068405 220.006989,200.345016 
	C214.405685,206.578918 207.821793,208.717468 199.359650,208.327042 
	C184.400711,207.636826 169.366028,207.658066 154.404343,208.317886 
	C145.877289,208.693954 139.256439,206.542526 133.046722,200.660278 
	C125.729248,193.728760 125.112427,193.819550 117.449608,200.956436 
	C111.654976,206.353333 105.605553,208.695953 97.495338,208.335938 
	C81.869087,207.642258 66.185211,207.909042 50.535976,208.258606 
	C45.238312,208.376953 41.583344,206.367355 37.753445,203.120667 
	C25.801863,192.989044 13.571356,183.186447 1.224490,173.628143 
	C1.000000,141.979111 1.000000,109.958214 1.254037,77.804214 
	C2.530482,77.149551 3.695030,76.798035 4.553554,76.080406 
	C14.309839,67.925194 24.169649,59.883770 33.687325,51.456768 
	C39.792957,46.050816 45.868343,42.563416 54.723938,43.167542 
	C68.322617,44.095234 82.049088,43.835075 95.686836,43.260395 
	C104.576653,42.885788 112.293701,43.923492 118.239014,51.344505 
	C120.030426,53.580563 122.760124,55.064922 125.465752,57.216244 
	C127.723984,55.308834 130.137634,53.375042 132.433334,51.310101 
	C137.874756,46.415642 143.221558,42.763870 151.534729,43.152897 
	C169.489212,43.993103 187.510803,43.344494 205.503387,43.492680 
	C207.857864,43.512070 210.615570,44.053959 212.467133,45.367710 
	C216.342270,48.117283 219.625183,51.687126 223.384903,54.620724 
	C224.909637,55.810421 227.033936,56.851200 228.902451,56.880669 
	C241.395035,57.077694 253.902084,56.690758 266.383667,57.110489 
	C272.374329,57.311939 276.673096,55.311520 280.765381,51.157810 
	C285.749847,46.098557 291.203979,42.763779 299.332092,43.149841 
	C317.119171,43.994694 334.974518,43.353180 352.800598,43.495285 
	C354.726685,43.510635 356.951904,44.266457 358.505341,45.405647 
	C362.744476,48.514336 366.564362,52.200230 370.843018,55.246376 
	C372.209564,56.219296 375.157013,56.812771 376.240448,56.020325 
	C380.685760,52.768951 384.691162,48.916092 389.093903,45.079395 
	C381.808838,39.225983 374.901550,33.676075 367.256958,27.533785 
	C372.007446,26.674297 375.319336,25.912825 378.674133,25.496984 
	C391.295013,23.932575 403.931213,22.492144 416.559143,20.983902 
	C432.009003,19.138615 447.427612,16.962673 462.914856,15.522865 
	C473.274750,14.559736 483.728149,14.533772 494.144196,14.258656 
	C511.382507,13.803342 528.624451,13.485153 545.864868,13.110241 
	C546.364502,13.099375 546.887390,13.196030 547.360718,13.081803 
	C558.881836,10.301131 570.211853,12.579647 581.511292,14.520801 
	C593.083313,16.508766 604.643738,18.618067 616.123413,21.074993 
	C627.171326,23.439497 639.686340,21.518250 647.916565,32.076988 
	C653.057861,27.844988 657.792542,24.024862 662.434875,20.095552 
	C664.953735,17.963545 667.565735,16.820726 670.932129,17.859402 
	C675.599976,19.299635 680.309998,20.607851 685.022095,21.899059 
	C692.617920,23.980452 692.391907,23.807854 696.740356,16.928165 
	C699.459473,12.626311 701.082153,7.041093 706.802307,5.419569 
	C710.519897,4.365723 714.403320,3.907529 718.162476,2.979919 
	C718.893372,2.799562 719.393494,1.684145 720.000000,1.000018 
	C722.370544,1.000000 724.741150,1.000000 727.262817,1.278643 
	C735.858948,9.270665 744.303894,16.984045 753.120117,25.036486 
	C757.641663,15.612019 761.762573,6.816191 771.955566,3.437369 
	C772.511902,3.252951 772.661194,1.840702 773.000000,0.999991 
	C780.020935,1.000000 787.041931,1.000000 794.233154,1.284924 
	C794.691711,1.977195 794.891296,2.523842 795.280945,2.771772 
	C810.696289,12.578897 823.946045,24.896099 836.434692,38.113686 
	C839.467163,41.323139 841.747864,44.610161 841.291748,49.424679 
	C840.900696,53.552063 841.299561,57.748478 841.177002,61.909290 
	C841.104797,64.359062 841.418396,67.198448 840.322083,69.177780 
	C833.713440,81.109039 826.744080,92.840363 819.902039,104.642433 
	C815.421021,112.371819 810.951111,120.107658 806.322754,128.105728 
	C822.160522,128.694168 837.318604,129.344864 852.482849,129.784592 
	C860.304871,130.011383 868.170593,129.434387 875.954834,130.028778 
	C881.534912,130.454865 887.252991,131.574158 892.488525,133.518005 
	C905.454346,138.332031 918.178650,143.796722 931.000000,149.000000 
	C931.000000,150.066666 931.000000,151.133347 930.717651,152.325348 
	C921.228516,160.816193 911.834290,168.988068 902.903137,177.638077 
	C899.078735,181.341995 894.737488,182.800812 889.810852,183.605347 
	C878.333740,185.479523 866.851746,187.334106 855.406555,189.390366 
	C839.830811,192.188705 824.299377,195.233414 808.727234,198.052109 
	C790.078186,201.427719 771.403564,204.662247 752.745361,207.987503 
	C745.738647,209.236237 738.797852,210.191208 732.200134,206.281174 
	C731.280823,205.736389 730.000061,205.511459 728.914917,205.580719 
	C716.245911,206.389404 703.574707,207.188843 690.920410,208.194885 
	C684.879822,208.675110 678.887207,209.802277 672.844299,210.182358 
	C670.973267,210.300034 668.623840,209.375259 667.164246,208.137039 
	C663.896240,205.364746 660.671448,203.211624 656.103821,203.797180 
	C648.126587,204.819794 640.126465,205.663620 631.538635,206.651047 
	C638.937500,232.980423 648.856201,258.529175 659.000000,284.000000 
	C650.979065,284.000000 642.958191,284.000000 634.468628,284.000000 
	C633.449036,283.387695 633.005920,282.420959 632.331055,282.215668 
	C619.855530,278.420593 607.322754,274.810150 594.884644,270.898376 
	C592.872864,270.265656 590.711609,268.747864 589.537659,267.016571 
	C573.577820,243.479568 557.780090,219.832626 541.609192,195.634430 
	C539.851868,192.865082 538.427734,190.674149 536.637329,187.919861 
	C534.300171,191.260742 532.643677,193.628662 530.987183,195.996582 
M126.785950,69.444565 
	C125.379982,69.018303 123.692329,68.950516 122.616020,68.104752 
	C117.511894,64.093887 112.672607,59.742596 107.518654,55.800621 
	C105.951225,54.601772 103.685356,53.734196 101.729935,53.715767 
	C84.733612,53.555580 67.734528,53.557049 50.738136,53.713772 
	C48.785435,53.731777 46.472260,54.532822 44.957619,55.753963 
	C34.586506,64.115471 24.328255,72.620819 14.196528,81.270615 
	C12.906818,82.371681 11.889486,84.575928 11.880211,86.275284 
	C11.736490,112.604477 11.752522,138.934799 11.856237,165.264359 
	C11.861884,166.697876 12.566118,168.592209 13.614964,169.486374 
	C24.260820,178.562119 34.989429,187.544235 45.857876,196.351410 
	C47.360619,197.569153 49.743660,198.223862 51.727413,198.242065 
	C67.890656,198.390610 84.057259,198.429886 100.218948,198.212814 
	C102.629784,198.180435 105.418007,197.161865 107.346901,195.697540 
	C113.536697,190.998550 119.405289,185.876450 125.535751,180.803436 
	C131.451920,185.740051 136.905533,190.649475 142.769485,195.006638 
	C145.104904,196.741943 148.328735,198.116898 151.181000,198.180481 
	C165.505447,198.499832 179.865341,197.824753 194.163330,198.518494 
	C203.132523,198.953674 210.336273,196.846909 216.322037,190.143402 
	C219.199860,186.920502 222.885086,185.724945 227.444305,185.833435 
	C240.768387,186.150497 254.140060,186.535965 267.424469,185.743973 
	C276.665405,185.193008 283.949249,187.574066 289.970734,194.427261 
	C292.653076,197.480087 296.012177,198.455795 300.185303,198.427124 
	C326.847321,198.243896 353.511200,198.333771 380.174469,198.333786 
	C381.942810,198.333786 383.711151,198.333786 385.560822,198.333786 
	C385.792297,195.591644 385.967010,193.522018 386.193909,190.833954 
	C387.685974,191.860062 388.933105,192.398300 389.734192,193.322937 
	C393.583344,197.765656 398.447876,198.562637 404.077087,198.432663 
	C417.401611,198.124985 430.738068,198.333786 444.069702,198.333786 
	C448.518677,198.333786 452.967621,198.333786 458.124268,198.333786 
	C451.237671,220.639633 444.560333,242.267700 437.611572,264.774841 
	C448.114563,260.131134 457.749603,256.059753 467.192413,251.582993 
	C470.079834,250.214111 472.916382,248.133392 474.966614,245.697281 
	C494.052917,223.018539 512.929260,200.163132 531.981140,177.455200 
	C533.664734,175.448578 536.160278,174.123245 538.390198,172.395126 
	C539.482117,173.855881 539.995422,174.494278 540.457581,175.167770 
	C558.825745,201.936646 577.144226,228.739914 595.645752,255.416290 
	C597.002747,257.372894 599.480042,259.119354 601.773438,259.763092 
	C612.654602,262.817474 623.649719,265.466675 634.612793,268.226501 
	C635.923828,268.556549 637.286438,268.681671 639.985596,269.125397 
	C632.462341,244.689590 625.303772,221.438431 618.008850,197.744293 
	C620.144653,197.497269 621.920715,197.263168 623.702759,197.090408 
	C635.463318,195.950241 647.357239,195.526199 658.922668,193.352402 
	C663.670105,192.460083 665.763123,194.395493 668.822815,196.399521 
	C670.909668,197.766357 673.464600,199.366989 675.761353,199.295471 
	C684.233948,199.031570 692.684021,197.597870 701.146606,197.562042 
	C714.698303,197.504654 728.497498,191.856888 741.812683,199.008469 
	C742.451233,199.351410 743.460754,199.147278 744.266296,199.012115 
	C749.020874,198.214310 753.766907,197.364777 758.514648,196.526535 
	C797.487305,189.645691 836.466919,182.803467 875.424561,175.838593 
	C881.265930,174.794266 888.102722,174.689392 892.539978,171.474045 
	C899.684509,166.297043 905.214294,158.891617 911.609802,152.236694 
	C901.942322,148.314941 892.153137,144.315292 882.330017,140.400803 
	C881.291260,139.986893 880.055847,139.969711 878.907532,139.942245 
	C857.432617,139.428635 835.958130,138.891891 814.481262,138.474045 
	C806.407104,138.316956 798.327393,138.448547 788.979736,138.448547 
	C790.587158,135.329834 791.258423,133.881058 792.054688,132.504547 
	C804.052856,111.762413 815.829224,90.886063 828.207581,70.373009 
	C832.530640,63.208996 830.513611,55.873814 830.940857,48.571598 
	C830.993896,47.664570 829.840393,46.614441 829.109863,45.744980 
	C817.117432,31.471138 802.753845,19.929600 787.318176,9.643757 
	C786.327087,8.983354 784.588562,8.095013 783.925476,8.501058 
	C777.402222,12.495541 769.443848,14.447117 765.787781,22.488081 
	C762.941406,28.748266 759.113770,34.562332 755.457642,41.043697 
	C745.592834,32.010025 736.320496,23.438980 726.924988,15.005138 
	C725.585022,13.802300 723.538452,12.379273 722.006165,12.569237 
	C714.645508,13.481787 707.800720,15.368054 704.596680,23.426523 
	C703.266724,26.771620 701.018127,29.843710 698.731506,32.671421 
	C697.797913,33.825958 695.478882,34.799240 694.093506,34.491142 
	C687.127869,32.941967 680.239624,31.022079 673.372498,29.063042 
	C670.407654,28.217230 668.105042,28.584850 665.651306,30.688799 
	C659.495911,35.966702 653.079468,40.940250 646.627686,46.148933 
	C644.517822,43.892418 642.521667,42.098240 640.937805,39.993763 
	C637.469666,35.385521 632.669312,33.938145 627.241821,33.078571 
	C613.777466,30.946198 600.381531,28.385921 586.938721,26.111807 
	C578.431458,24.672623 569.887024,22.312435 561.363525,22.330853 
	C538.741455,22.379736 516.120544,23.461437 493.501343,24.199156 
	C479.365845,24.660179 465.191833,24.737316 451.113739,25.921787 
	C438.702515,26.966015 426.396057,29.277590 414.051910,31.088190 
	C407.230713,32.088703 400.427216,33.209770 392.483551,34.453793 
	C399.561554,41.115948 405.716339,46.909119 412.849548,53.623245 
	C408.046722,53.623245 404.743530,53.833126 401.478210,53.570927 
	C397.251801,53.231560 393.889160,54.319805 390.669281,57.299934 
	C385.450012,62.130589 379.756226,66.448570 374.123566,71.097923 
	C367.958069,66.030960 362.192566,60.999062 356.079529,56.432442 
	C354.014465,54.889805 351.083740,53.798183 348.523163,53.745773 
	C335.530243,53.479851 322.472595,54.372643 309.547455,53.399872 
	C298.003784,52.531071 288.912964,55.671974 281.116852,64.064285 
	C279.481964,65.824203 276.235321,66.818489 273.698547,66.883423 
	C262.207550,67.177536 250.652466,66.328224 239.220795,67.202484 
	C227.548416,68.095161 217.810974,65.730103 209.716553,56.827915 
	C207.927795,54.860630 204.225784,53.806580 201.381729,53.760750 
	C184.221710,53.484253 167.053726,53.522846 149.891968,53.738388 
	C147.492447,53.768524 144.740234,54.853016 142.794800,56.309185 
	C137.468613,60.295845 132.485748,64.741188 126.785950,69.444565 
z" data-index="1" style="opacity: 1;"></path>

<path fill="#010101" opacity="1.000000" stroke="none" d="
M719.531372,1.000018 
	C719.393494,1.684145 718.893372,2.799562 718.162476,2.979919 
	C714.403320,3.907529 710.519897,4.365723 706.802307,5.419569 
	C701.082153,7.041093 699.459473,12.626311 696.740356,16.928165 
	C692.391907,23.807854 692.617920,23.980452 685.022095,21.899059 
	C680.309998,20.607851 675.599976,19.299635 670.932129,17.859402 
	C667.565735,16.820726 664.953735,17.963545 662.434875,20.095552 
	C657.792542,24.024862 653.057861,27.844988 647.916565,32.076988 
	C639.686340,21.518250 627.171326,23.439497 616.123413,21.074993 
	C604.643738,18.618067 593.083313,16.508766 581.511292,14.520801 
	C570.211853,12.579647 558.881836,10.301131 547.360718,13.081803 
	C546.887390,13.196030 546.364502,13.099375 545.864868,13.110241 
	C528.624451,13.485153 511.382507,13.803342 494.144196,14.258656 
	C483.728149,14.533772 473.274750,14.559736 462.914856,15.522865 
	C447.427612,16.962673 432.009003,19.138615 416.559143,20.983902 
	C403.931213,22.492144 391.295013,23.932575 378.674133,25.496984 
	C375.319336,25.912825 372.007446,26.674297 367.256958,27.533785 
	C374.901550,33.676075 381.808838,39.225983 389.093903,45.079395 
	C384.691162,48.916092 380.685760,52.768951 376.240448,56.020325 
	C375.157013,56.812771 372.209564,56.219296 370.843018,55.246376 
	C366.564362,52.200230 362.744476,48.514336 358.505341,45.405647 
	C356.951904,44.266457 354.726685,43.510635 352.800598,43.495285 
	C334.974518,43.353180 317.119171,43.994694 299.332092,43.149841 
	C291.203979,42.763779 285.749847,46.098557 280.765381,51.157810 
	C276.673096,55.311520 272.374329,57.311939 266.383667,57.110489 
	C253.902084,56.690758 241.395035,57.077694 228.902451,56.880669 
	C227.033936,56.851200 224.909637,55.810421 223.384903,54.620724 
	C219.625183,51.687126 216.342270,48.117283 212.467133,45.367710 
	C210.615570,44.053959 207.857864,43.512070 205.503387,43.492680 
	C187.510803,43.344494 169.489212,43.993103 151.534729,43.152897 
	C143.221558,42.763870 137.874756,46.415642 132.433334,51.310101 
	C130.137634,53.375042 127.723984,55.308834 125.465752,57.216244 
	C122.760124,55.064922 120.030426,53.580563 118.239014,51.344505 
	C112.293701,43.923492 104.576653,42.885788 95.686836,43.260395 
	C82.049088,43.835075 68.322617,44.095234 54.723938,43.167542 
	C45.868343,42.563416 39.792957,46.050816 33.687325,51.456768 
	C24.169649,59.883770 14.309839,67.925194 4.553554,76.080406 
	C3.695030,76.798035 2.530482,77.149551 1.254037,77.335556 
	C1.000000,51.680611 1.000000,26.361223 1.000000,1.000000 
	C240.354233,1.000000 479.708466,1.000000 719.531372,1.000018 
z" data-index="3" style="opacity: 1; visibility: hidden;"></path>

<path fill="#040404" opacity="1.000000" stroke="none" d="
M772.531311,0.999991 
	C772.661194,1.840702 772.511902,3.252951 771.955566,3.437369 
	C761.762573,6.816191 757.641663,15.612019 753.120117,25.036486 
	C744.303894,16.984045 735.858948,9.270665 727.707031,1.278643 
	C742.687561,1.000000 757.375122,1.000000 772.531311,0.999991 
z" data-index="5" style="opacity: 1; visibility: hidden;"></path>

<path fill="#1B1F1F" opacity="1.000000" stroke="none" d="
M127.076447,69.224747 
	C132.485748,64.741188 137.468613,60.295845 142.794800,56.309185 
	C144.740234,54.853016 147.492447,53.768524 149.891968,53.738388 
	C167.053726,53.522846 184.221710,53.484253 201.381729,53.760750 
	C204.225784,53.806580 207.927795,54.860630 209.716553,56.827915 
	C217.810974,65.730103 227.548416,68.095161 239.220795,67.202484 
	C250.652466,66.328224 262.207550,67.177536 273.698547,66.883423 
	C276.235321,66.818489 279.481964,65.824203 281.116852,64.064285 
	C288.912964,55.671974 298.003784,52.531071 309.547455,53.399872 
	C322.472595,54.372643 335.530243,53.479851 348.523163,53.745773 
	C351.083740,53.798183 354.014465,54.889805 356.079529,56.432442 
	C362.192566,60.999062 367.958069,66.030960 374.123566,71.097923 
	C379.756226,66.448570 385.450012,62.130589 390.669281,57.299934 
	C393.889160,54.319805 397.251801,53.231560 401.478210,53.570927 
	C404.743530,53.833126 408.046722,53.623245 412.849548,53.623245 
	C405.716339,46.909119 399.561554,41.115948 392.483551,34.453793 
	C400.427216,33.209770 407.230713,32.088703 414.051910,31.088190 
	C426.396057,29.277590 438.702515,26.966015 451.113739,25.921787 
	C465.191833,24.737316 479.365845,24.660179 493.501343,24.199156 
	C516.120544,23.461437 538.741455,22.379736 561.363525,22.330853 
	C569.887024,22.312435 578.431458,24.672623 586.938721,26.111807 
	C600.381531,28.385921 613.777466,30.946198 627.241821,33.078571 
	C632.669312,33.938145 637.469666,35.385521 640.937805,39.993763 
	C642.521667,42.098240 644.517822,43.892418 646.627686,46.148933 
	C653.079468,40.940250 659.495911,35.966702 665.651306,30.688799 
	C668.105042,28.584850 670.407654,28.217230 673.372498,29.063042 
	C680.239624,31.022079 687.127869,32.941967 694.093506,34.491142 
	C695.478882,34.799240 697.797913,33.825958 698.731506,32.671421 
	C701.018127,29.843710 703.266724,26.771620 704.596680,23.426523 
	C707.800720,15.368054 714.645508,13.481787 722.006165,12.569237 
	C723.538452,12.379273 725.585022,13.802300 726.924988,15.005138 
	C736.320496,23.438980 745.592834,32.010025 755.457642,41.043697 
	C759.113770,34.562332 762.941406,28.748266 765.787781,22.488081 
	C769.443848,14.447117 777.402222,12.495541 783.925476,8.501058 
	C784.588562,8.095013 786.327087,8.983354 787.318176,9.643757 
	C802.753845,19.929600 817.117432,31.471138 829.109863,45.744980 
	C829.840393,46.614441 830.993896,47.664570 830.940857,48.571598 
	C830.513611,55.873814 832.530640,63.208996 828.207581,70.373009 
	C815.829224,90.886063 804.052856,111.762413 792.054688,132.504547 
	C791.258423,133.881058 790.587158,135.329834 788.979736,138.448547 
	C798.327393,138.448547 806.407104,138.316956 814.481262,138.474045 
	C835.958130,138.891891 857.432617,139.428635 878.907532,139.942245 
	C880.055847,139.969711 881.291260,139.986893 882.330017,140.400803 
	C892.153137,144.315292 901.942322,148.314941 911.609802,152.236694 
	C905.214294,158.891617 899.684509,166.297043 892.539978,171.474045 
	C888.102722,174.689392 881.265930,174.794266 875.424561,175.838593 
	C836.466919,182.803467 797.487305,189.645691 758.514648,196.526535 
	C753.766907,197.364777 749.020874,198.214310 744.266296,199.012115 
	C743.460754,199.147278 742.451233,199.351410 741.812683,199.008469 
	C728.497498,191.856888 714.698303,197.504654 701.146606,197.562042 
	C692.684021,197.597870 684.233948,199.031570 675.761353,199.295471 
	C673.464600,199.366989 670.909668,197.766357 668.822815,196.399521 
	C665.763123,194.395493 663.670105,192.460083 658.922668,193.352402 
	C647.357239,195.526199 635.463318,195.950241 623.702759,197.090408 
	C621.920715,197.263168 620.144653,197.497269 618.008850,197.744293 
	C625.303772,221.438431 632.462341,244.689590 639.985596,269.125397 
	C637.286438,268.681671 635.923828,268.556549 634.612793,268.226501 
	C623.649719,265.466675 612.654602,262.817474 601.773438,259.763092 
	C599.480042,259.119354 597.002747,257.372894 595.645752,255.416290 
	C577.144226,228.739914 558.825745,201.936646 540.457581,175.167770 
	C539.995422,174.494278 539.482117,173.855881 538.390198,172.395126 
	C536.160278,174.123245 533.664734,175.448578 531.981140,177.455200 
	C512.929260,200.163132 494.052917,223.018539 474.966614,245.697281 
	C472.916382,248.133392 470.079834,250.214111 467.192413,251.582993 
	C457.749603,256.059753 448.114563,260.131134 437.611572,264.774841 
	C444.560333,242.267700 451.237671,220.639633 458.124268,198.333786 
	C452.967621,198.333786 448.518677,198.333786 444.069702,198.333786 
	C430.738068,198.333786 417.401611,198.124985 404.077087,198.432663 
	C398.447876,198.562637 393.583344,197.765656 389.734192,193.322937 
	C388.933105,192.398300 387.685974,191.860062 386.193909,190.833954 
	C385.967010,193.522018 385.792297,195.591644 385.560822,198.333786 
	C383.711151,198.333786 381.942810,198.333786 380.174469,198.333786 
	C353.511200,198.333771 326.847321,198.243896 300.185303,198.427124 
	C296.012177,198.455795 292.653076,197.480087 289.970734,194.427261 
	C283.949249,187.574066 276.665405,185.193008 267.424469,185.743973 
	C254.140060,186.535965 240.768387,186.150497 227.444305,185.833435 
	C222.885086,185.724945 219.199860,186.920502 216.322037,190.143402 
	C210.336273,196.846909 203.132523,198.953674 194.163330,198.518494 
	C179.865341,197.824753 165.505447,198.499832 151.181000,198.180481 
	C148.328735,198.116898 145.104904,196.741943 142.769485,195.006638 
	C136.905533,190.649475 131.451920,185.740051 125.535751,180.803436 
	C119.405289,185.876450 113.536697,190.998550 107.346901,195.697540 
	C105.418007,197.161865 102.629784,198.180435 100.218948,198.212814 
	C84.057259,198.429886 67.890656,198.390610 51.727413,198.242065 
	C49.743660,198.223862 47.360619,197.569153 45.857876,196.351410 
	C34.989429,187.544235 24.260820,178.562119 13.614964,169.486374 
	C12.566118,168.592209 11.861884,166.697876 11.856237,165.264359 
	C11.752522,138.934799 11.736490,112.604477 11.880211,86.275284 
	C11.889486,84.575928 12.906818,82.371681 14.196528,81.270615 
	C24.328255,72.620819 34.586506,64.115471 44.957619,55.753963 
	C46.472260,54.532822 48.785435,53.731777 50.738136,53.713772 
	C67.734528,53.557049 84.733612,53.555580 101.729935,53.715767 
	C103.685356,53.734196 105.951225,54.601772 107.518654,55.800621 
	C112.672607,59.742596 117.511894,64.093887 122.616020,68.104752 
	C123.692329,68.950516 125.379982,69.018303 127.076447,69.224747 
M594.455200,218.071350 
	C599.710510,225.975861 604.922974,233.909531 610.265808,241.754425 
	C611.096008,242.973404 612.521973,243.786667 613.672424,244.787537 
	C614.070618,244.472992 614.468811,244.158463 614.867004,243.843918 
	C607.743164,223.206070 600.619324,202.568222 593.306335,181.382339 
	C596.132629,180.862823 598.199036,180.362839 600.295227,180.116913 
	C615.496399,178.333481 630.678589,176.319580 645.919006,174.966843 
	C654.045288,174.245544 661.256409,173.090103 663.103027,162.660355 
	C666.918701,172.134399 677.661743,180.323257 685.275940,179.813507 
	C695.402039,179.135590 705.491760,177.611282 715.619690,177.360199 
	C723.428833,177.166580 731.405334,172.297028 739.175903,177.747055 
	C739.833557,178.208298 741.136719,177.838196 742.124817,177.723465 
	C746.091125,177.262909 750.060669,176.814774 754.012573,176.247711 
	C789.580872,171.143753 825.148010,166.031769 860.708740,160.875671 
	C865.587708,160.168259 870.429810,159.206009 875.288940,158.361740 
	C875.222046,157.777161 875.155151,157.192581 875.088257,156.608002 
	C836.694580,155.705460 798.300903,154.802933 758.782043,153.873932 
	C761.773071,148.355896 764.012634,144.136078 766.331665,139.960464 
	C780.317017,114.778999 794.333679,89.614944 808.304321,64.425331 
	C810.455750,60.546265 808.672974,51.260204 805.236267,48.953262 
	C801.091431,46.171066 796.727722,43.717117 792.532532,41.006939 
	C790.370789,39.610371 788.866882,39.858521 787.706177,42.207012 
	C786.968933,43.698616 786.081787,45.115269 785.301270,46.586441 
	C767.826538,79.524559 750.201355,112.384659 733.029785,145.480103 
	C729.907043,151.498581 726.345215,153.942139 719.582214,153.329681 
	C712.434387,152.682404 705.182556,153.184479 697.354614,153.184479 
	C698.289185,151.230026 698.864624,149.901321 699.542603,148.627136 
	C713.699951,122.018341 728.070129,95.519821 741.923157,68.753616 
	C746.570068,59.774948 746.139526,54.758614 738.626343,49.668591 
	C736.442688,48.189190 734.517761,46.255238 732.709412,44.310913 
	C729.745422,41.124008 728.046570,41.312649 725.760315,45.366360 
	C711.362000,70.895477 696.709717,96.281471 682.085266,121.682465 
	C680.957153,123.641823 679.398193,125.353104 677.520020,127.878067 
	C677.173157,126.166290 676.866882,125.613998 677.012146,125.234535 
	C684.563416,105.508980 688.673096,85.081581 689.490479,63.992088 
	C689.558411,62.240910 689.641907,60.106895 688.769653,58.769341 
	C685.060120,53.080940 676.059326,52.073196 671.157043,56.686462 
	C656.607971,70.377846 642.171509,84.188950 627.605286,97.861984 
	C613.511658,111.091438 599.501404,124.363808 589.803833,141.412018 
	C588.124878,144.363480 586.096436,147.116104 583.553528,150.990311 
	C581.336487,144.317459 579.998413,138.617722 577.562866,133.433563 
	C575.166260,128.332291 576.776367,126.156975 581.139526,123.278206 
	C595.441711,113.841698 609.614014,104.155846 623.273010,93.821449 
	C629.139587,89.382828 634.011169,83.420883 638.612305,77.581741 
	C642.525574,72.615494 641.545471,68.836159 636.350830,65.351074 
	C633.471558,63.419361 630.363892,61.532070 627.082397,60.541199 
	C591.261963,49.724751 554.867676,42.117619 517.199890,43.739525 
	C494.476227,44.717964 471.570648,43.914661 449.163391,49.106419 
	C445.808289,49.883797 442.439362,50.601494 439.076813,51.346802 
	C439.138123,51.843529 439.199432,52.340256 439.260742,52.836979 
	C469.355774,58.743076 499.450775,64.649170 529.965393,70.637611 
	C507.070923,126.213455 484.360535,181.342499 461.650116,236.471542 
	C462.132446,236.755173 462.614777,237.038803 463.097107,237.322433 
	C464.618652,235.679504 466.335602,234.176941 467.631836,232.372192 
	C482.593414,211.541443 498.106049,191.068024 512.157837,169.637802 
	C519.666199,158.186813 528.383545,150.056824 541.744995,146.671371 
	C545.554871,145.706039 547.244324,146.170273 549.343628,149.407196 
	C564.114380,172.181473 579.100220,194.816238 594.455200,218.071350 
M367.091797,137.500122 
	C367.091797,130.403549 367.091797,123.306969 367.091797,116.269737 
	C351.328339,116.269737 336.291840,116.269737 321.229187,116.269737 
	C321.229187,122.614708 321.229187,128.519516 321.229187,135.032944 
	C325.950043,135.032944 330.348083,135.032944 335.177429,135.032944 
	C335.177429,139.104156 335.094086,142.572403 335.198120,146.035004 
	C335.333221,150.530594 332.450439,152.362228 328.750824,152.703186 
	C324.291870,153.114136 319.743805,153.076645 315.276184,152.715500 
	C311.542633,152.413696 308.817780,150.707123 308.864197,146.128952 
	C308.999390,132.806305 308.998047,119.480530 308.865967,106.157814 
	C308.818542,101.370979 311.523499,99.621315 315.600159,99.385406 
	C319.750092,99.145264 323.972443,99.727135 328.076782,99.232620 
	C333.733185,98.551109 336.775604,100.258560 337.282074,106.260162 
	C337.411285,107.791023 339.188965,110.396019 340.290802,110.439476 
	C349.056702,110.785187 357.842285,110.632179 367.081299,110.632179 
	C367.081299,103.939270 367.169403,97.809486 367.002502,91.686661 
	C366.971344,90.543655 366.185516,89.113853 365.291565,88.351608 
	C359.466766,83.384926 353.585541,78.476608 347.545258,73.777344 
	C346.400696,72.886871 344.463531,72.731506 342.889130,72.721840 
	C329.898682,72.642151 316.906830,72.610725 303.917450,72.752159 
	C302.086456,72.772102 299.907501,73.347481 298.502930,74.448296 
	C292.088898,79.475105 285.793854,84.668373 279.694672,90.071198 
	C278.289429,91.315979 277.061768,93.615921 277.044922,95.442230 
	C276.858826,115.593102 276.872925,135.746765 277.028412,155.898163 
	C277.041473,157.592194 278.040131,159.759766 279.310150,160.882050 
	C285.793182,166.610916 292.502289,172.085083 299.171570,177.600845 
	C300.038574,178.317902 301.191040,179.336212 302.112946,179.242966 
	C314.656891,177.974152 328.634003,184.161011 339.181976,172.291275 
	C339.254211,172.209976 339.483643,172.268387 339.928467,172.248901 
	C340.565125,173.831329 341.050934,175.628510 341.986176,177.149338 
	C342.577545,178.111023 343.824371,179.272690 344.803131,179.296936 
	C352.074127,179.477066 359.351593,179.394623 367.091797,179.394623 
	C367.091797,165.393692 367.091797,151.946869 367.091797,137.500122 
M188.540604,141.978058 
	C191.203415,149.738434 188.966309,153.131943 181.165833,153.150833 
	C177.334320,153.160110 173.462219,152.801941 169.681320,153.239487 
	C164.741409,153.811157 162.383743,152.059921 161.760208,147.092850 
	C161.536560,145.311356 159.945801,142.295609 158.872681,142.248184 
	C149.975952,141.854874 141.054306,142.025406 132.002396,142.025406 
	C132.002396,148.036682 131.833206,153.368011 132.108170,158.676331 
	C132.187973,160.216660 133.192627,162.080063 134.368057,163.128738 
	C139.580963,167.779556 144.908707,172.318420 150.422424,176.605133 
	C152.095627,177.905991 154.480347,178.888794 156.571030,178.951248 
	C165.225891,179.209808 173.979202,178.287842 182.534988,179.243774 
	C194.885086,180.623627 204.373871,176.703262 213.422592,168.349503 
	C218.926941,163.267899 222.281540,158.684891 221.257095,151.116699 
	C220.747787,147.354111 220.706039,143.395996 221.270370,139.649460 
	C222.267319,133.030731 219.701523,128.485962 214.247421,125.226616 
	C208.537170,121.814194 204.326355,116.230133 196.589020,115.792648 
	C187.699158,115.290009 178.899216,113.180389 170.063049,111.751175 
	C165.079285,110.945076 162.856323,108.542671 163.372894,104.265182 
	C163.875107,100.106544 166.841690,99.016075 170.501678,99.007607 
	C174.166595,98.999130 177.881485,99.387199 181.484863,98.916084 
	C186.973541,98.198479 189.771637,100.173721 190.280960,105.714401 
	C190.610916,109.303734 192.677963,110.520790 196.383041,110.334991 
	C203.029877,110.001640 209.706131,110.182144 216.368484,110.270248 
	C218.774826,110.302078 219.882416,109.666710 220.100067,106.958900 
	C220.942505,96.478615 220.495270,86.772202 209.465546,81.091255 
	C206.723022,79.678688 204.739227,76.854744 202.093170,75.172760 
	C200.133606,73.927155 197.680786,72.839493 195.422256,72.787521 
	C184.766266,72.542328 174.064682,73.219788 163.452103,72.498291 
	C155.661606,71.968666 150.334885,75.282631 144.223541,79.395226 
	C134.116135,86.196938 131.081100,94.551910 131.600250,106.459610 
	C131.992920,115.466362 133.351913,122.244728 141.454926,127.177849 
	C146.334976,130.148834 150.101608,134.750214 156.453339,135.279587 
	C162.228073,135.760864 167.967285,136.865189 173.668533,137.971252 
	C178.481888,138.905075 183.218384,140.235199 188.540604,141.978058 
M385.729004,86.249924 
	C383.313080,88.938782 379.516388,90.219353 379.584747,95.146530 
	C379.868866,115.623711 379.641296,136.107635 379.811371,156.587357 
	C379.826660,158.429810 380.882690,160.777023 382.249908,162.005646 
	C388.060364,167.227081 394.080139,172.230469 400.234711,177.043381 
	C401.758301,178.234848 404.064880,178.936829 406.026917,178.970627 
	C416.680603,179.154144 427.347504,178.804291 437.992645,179.157333 
	C443.929199,179.354218 448.865204,178.337082 453.238586,173.893661 
	C457.184357,169.884674 462.089264,166.830505 466.145355,162.914200 
	C467.803436,161.313278 469.215820,158.564743 469.249115,156.316208 
	C469.502991,139.169113 468.857910,121.993782 469.593109,104.874496 
	C470.013977,95.074356 468.359497,87.319351 459.063782,82.530769 
	C457.629944,81.792122 456.516022,80.405090 455.307190,79.261803 
	C450.337067,74.561073 444.988892,71.548210 437.595886,72.529556 
	C431.868805,73.289772 425.906464,73.187569 420.143219,72.576782 
	C407.869537,71.275993 397.164062,73.597305 389.067871,83.694115 
	C388.362885,84.573265 387.231018,85.110115 385.729004,86.249924 
M44.384888,80.876564 
	C40.666901,83.955093 36.802929,86.879707 33.308472,90.193924 
	C32.050430,91.387085 31.019760,93.512024 31.006680,95.220322 
	C30.850981,115.552422 30.862963,135.886444 30.995535,156.218887 
	C31.005644,157.769318 31.859594,159.768295 33.007389,160.781662 
	C39.248024,166.291397 45.606220,171.681854 52.154259,176.819855 
	C53.809223,178.118439 56.295227,178.919983 58.419498,178.963348 
	C68.915100,179.177750 79.431732,178.714905 89.913925,179.146774 
	C103.649246,179.712662 109.102455,167.506409 118.492500,161.402435 
	C118.698967,161.268219 118.753250,160.786148 118.754036,160.466049 
	C118.768883,154.375961 118.764977,148.285812 118.764977,142.002930 
	C111.546104,142.002930 105.052963,142.002914 98.559830,142.002930 
	C90.492043,142.002930 90.273491,141.948517 88.372849,149.581329 
	C87.635986,152.540512 86.359680,153.294571 83.604332,153.196518 
	C78.943565,153.030655 74.271988,153.199371 69.606140,153.137634 
	C64.634796,153.071869 62.054195,150.479523 62.044304,145.549637 
	C62.018219,132.549698 62.016735,119.549652 62.043034,106.549728 
	C62.053371,101.439278 64.413071,99.119614 69.687668,99.020714 
	C73.353050,98.951981 77.085175,99.440170 80.672440,98.906403 
	C86.175797,98.087547 88.427658,100.445808 89.372192,105.536888 
	C89.689941,107.249588 91.515915,109.959808 92.755783,110.018097 
	C101.200737,110.415092 109.673256,110.225906 118.643684,110.225906 
	C118.643684,103.303329 119.666481,96.623550 118.235558,90.518929 
	C117.456841,87.196747 112.552521,84.803909 109.432465,82.079529 
	C106.674690,79.671486 103.975250,77.134972 100.934433,75.135063 
	C98.999687,73.862587 96.505554,72.846191 94.233353,72.784813 
	C84.740295,72.528389 75.198784,73.199425 65.747490,72.521049 
	C57.296230,71.914459 50.436485,73.999580 44.384888,80.876564 
M256.464050,86.031860 
	C248.898376,86.031860 241.332703,86.031860 233.964630,86.031860 
	C233.964630,96.966118 233.964630,107.193825 233.964630,117.519714 
	C244.520554,117.519714 254.716293,117.519714 265.023987,117.519714 
	C265.023987,106.932594 265.023987,96.696480 265.023987,86.031860 
	C262.364929,86.031860 259.907806,86.031860 256.464050,86.031860 
M236.581909,167.186508 
	C245.998489,167.186508 255.415085,167.186508 264.772522,167.186508 
	C264.772522,156.038925 264.772522,145.525940 264.772522,135.216202 
	C254.220367,135.216202 244.139664,135.216202 233.629776,135.216202 
	C233.629776,145.323502 233.585846,155.109100 233.714676,164.892410 
	C233.724792,165.659790 234.939682,166.411316 236.581909,167.186508 
z" data-index="7" style="opacity: 1;"></path>
<path fill="#FB4132" opacity="1.000000" stroke="none" d="
M594.236267,217.783447 
	C579.100220,194.816238 564.114380,172.181473 549.343628,149.407196 
	C547.244324,146.170273 545.554871,145.706039 541.744995,146.671371 
	C528.383545,150.056824 519.666199,158.186813 512.157837,169.637802 
	C498.106049,191.068024 482.593414,211.541443 467.631836,232.372192 
	C466.335602,234.176941 464.618652,235.679504 463.097107,237.322433 
	C462.614777,237.038803 462.132446,236.755173 461.650116,236.471542 
	C484.360535,181.342499 507.070923,126.213455 529.965393,70.637611 
	C499.450775,64.649170 469.355774,58.743076 439.260742,52.836979 
	C439.199432,52.340256 439.138123,51.843529 439.076813,51.346802 
	C442.439362,50.601494 445.808289,49.883797 449.163391,49.106419 
	C471.570648,43.914661 494.476227,44.717964 517.199890,43.739525 
	C554.867676,42.117619 591.261963,49.724751 627.082397,60.541199 
	C630.363892,61.532070 633.471558,63.419361 636.350830,65.351074 
	C641.545471,68.836159 642.525574,72.615494 638.612305,77.581741 
	C634.011169,83.420883 629.139587,89.382828 623.273010,93.821449 
	C609.614014,104.155846 595.441711,113.841698 581.139526,123.278206 
	C576.776367,126.156975 575.166260,128.332291 577.562866,133.433563 
	C579.998413,138.617722 581.336487,144.317459 583.553528,150.990311 
	C586.096436,147.116104 588.124878,144.363480 589.803833,141.412018 
	C599.501404,124.363808 613.511658,111.091438 627.605286,97.861984 
	C642.171509,84.188950 656.607971,70.377846 671.157043,56.686462 
	C676.059326,52.073196 685.060120,53.080940 688.769653,58.769341 
	C689.641907,60.106895 689.558411,62.240910 689.490479,63.992088 
	C688.673096,85.081581 684.563416,105.508980 677.012146,125.234535 
	C676.866882,125.613998 677.173157,126.166290 677.520020,127.878067 
	C679.398193,125.353104 680.957153,123.641823 682.085266,121.682465 
	C696.709717,96.281471 711.362000,70.895477 725.760315,45.366360 
	C728.046570,41.312649 729.745422,41.124008 732.709412,44.310913 
	C734.517761,46.255238 736.442688,48.189190 738.626343,49.668591 
	C746.139526,54.758614 746.570068,59.774948 741.923157,68.753616 
	C728.070129,95.519821 713.699951,122.018341 699.542603,148.627136 
	C698.864624,149.901321 698.289185,151.230026 697.354614,153.184479 
	C705.182556,153.184479 712.434387,152.682404 719.582214,153.329681 
	C726.345215,153.942139 729.907043,151.498581 733.029785,145.480103 
	C750.201355,112.384659 767.826538,79.524559 785.301270,46.586441 
	C786.081787,45.115269 786.968933,43.698616 787.706177,42.207012 
	C788.866882,39.858521 790.370789,39.610371 792.532532,41.006939 
	C796.727722,43.717117 801.091431,46.171066 805.236267,48.953262 
	C808.672974,51.260204 810.455750,60.546265 808.304321,64.425331 
	C794.333679,89.614944 780.317017,114.778999 766.331665,139.960464 
	C764.012634,144.136078 761.773071,148.355896 758.782043,153.873932 
	C798.300903,154.802933 836.694580,155.705460 875.088257,156.608002 
	C875.155151,157.192581 875.222046,157.777161 875.288940,158.361740 
	C870.429810,159.206009 865.587708,160.168259 860.708740,160.875671 
	C825.148010,166.031769 789.580872,171.143753 754.012573,176.247711 
	C750.060669,176.814774 746.091125,177.262909 742.124817,177.723465 
	C741.136719,177.838196 739.833557,178.208298 739.175903,177.747055 
	C731.405334,172.297028 723.428833,177.166580 715.619690,177.360199 
	C705.491760,177.611282 695.402039,179.135590 685.275940,179.813507 
	C677.661743,180.323257 666.918701,172.134399 663.103027,162.660355 
	C661.256409,173.090103 654.045288,174.245544 645.919006,174.966843 
	C630.678589,176.319580 615.496399,178.333481 600.295227,180.116913 
	C598.199036,180.362839 596.132629,180.862823 593.306335,181.382339 
	C600.619324,202.568222 607.743164,223.206070 614.867004,243.843918 
	C614.468811,244.158463 614.070618,244.472992 613.672424,244.787537 
	C612.521973,243.786667 611.096008,242.973404 610.265808,241.754425 
	C604.922974,233.909531 599.710510,225.975861 594.236267,217.783447 
M583.838501,91.361488 
	C588.228760,88.719238 592.619080,86.076996 597.165283,83.340919 
	C596.020020,81.936569 595.857666,81.524185 595.602905,81.455780 
	C584.858704,78.570389 574.125610,75.636314 563.319519,73.001930 
	C562.416321,72.781754 560.493896,74.357887 559.937683,75.524887 
	C557.864685,79.874565 556.102173,84.377403 554.338257,88.867981 
	C551.759094,95.433937 549.279358,102.038902 546.757202,108.627243 
	C547.083374,108.918419 547.409607,109.209602 547.735779,109.500778 
	C559.548828,103.567947 571.361816,97.635124 583.838501,91.361488 
M640.516357,146.013535 
	C643.221741,139.043304 645.967468,132.088379 648.621094,125.098503 
	C651.189331,118.333206 653.662842,111.531944 656.177979,104.746483 
	C655.794189,104.569756 655.410400,104.393036 655.026611,104.216309 
	C641.528137,121.830284 626.372375,138.172867 614.392090,157.117386 
	C620.742004,156.430618 626.532288,155.035339 632.372986,153.898834 
	C636.554260,153.085220 639.385437,151.063354 640.516357,146.013535 
z" data-index="8" style="opacity: 1;"></path>
<path fill="#FCFCFC" opacity="1.000000" stroke="none" d="
M367.091797,138.000092 
	C367.091797,151.946869 367.091797,165.393692 367.091797,179.394623 
	C359.351593,179.394623 352.074127,179.477066 344.803131,179.296936 
	C343.824371,179.272690 342.577545,178.111023 341.986176,177.149338 
	C341.050934,175.628510 340.565125,173.831329 339.928467,172.248901 
	C339.483643,172.268387 339.254211,172.209976 339.181976,172.291275 
	C328.634003,184.161011 314.656891,177.974152 302.112946,179.242966 
	C301.191040,179.336212 300.038574,178.317902 299.171570,177.600845 
	C292.502289,172.085083 285.793182,166.610916 279.310150,160.882050 
	C278.040131,159.759766 277.041473,157.592194 277.028412,155.898163 
	C276.872925,135.746765 276.858826,115.593102 277.044922,95.442230 
	C277.061768,93.615921 278.289429,91.315979 279.694672,90.071198 
	C285.793854,84.668373 292.088898,79.475105 298.502930,74.448296 
	C299.907501,73.347481 302.086456,72.772102 303.917450,72.752159 
	C316.906830,72.610725 329.898682,72.642151 342.889130,72.721840 
	C344.463531,72.731506 346.400696,72.886871 347.545258,73.777344 
	C353.585541,78.476608 359.466766,83.384926 365.291565,88.351608 
	C366.185516,89.113853 366.971344,90.543655 367.002502,91.686661 
	C367.169403,97.809486 367.081299,103.939270 367.081299,110.632179 
	C357.842285,110.632179 349.056702,110.785187 340.290802,110.439476 
	C339.188965,110.396019 337.411285,107.791023 337.282074,106.260162 
	C336.775604,100.258560 333.733185,98.551109 328.076782,99.232620 
	C323.972443,99.727135 319.750092,99.145264 315.600159,99.385406 
	C311.523499,99.621315 308.818542,101.370979 308.865967,106.157814 
	C308.998047,119.480530 308.999390,132.806305 308.864197,146.128952 
	C308.817780,150.707123 311.542633,152.413696 315.276184,152.715500 
	C319.743805,153.076645 324.291870,153.114136 328.750824,152.703186 
	C332.450439,152.362228 335.333221,150.530594 335.198120,146.035004 
	C335.094086,142.572403 335.177429,139.104156 335.177429,135.032944 
	C330.348083,135.032944 325.950043,135.032944 321.229187,135.032944 
	C321.229187,128.519516 321.229187,122.614708 321.229187,116.269737 
	C336.291840,116.269737 351.328339,116.269737 367.091797,116.269737 
	C367.091797,123.306969 367.091797,130.403549 367.091797,138.000092 
z" data-index="9" style="opacity: 1;"></path>
<path fill="#FCFCFC" opacity="1.000000" stroke="none" d="
M188.264740,141.683990 
	C183.218384,140.235199 178.481888,138.905075 173.668533,137.971252 
	C167.967285,136.865189 162.228073,135.760864 156.453339,135.279587 
	C150.101608,134.750214 146.334976,130.148834 141.454926,127.177849 
	C133.351913,122.244728 131.992920,115.466362 131.600250,106.459610 
	C131.081100,94.551910 134.116135,86.196938 144.223541,79.395226 
	C150.334885,75.282631 155.661606,71.968666 163.452103,72.498291 
	C174.064682,73.219788 184.766266,72.542328 195.422256,72.787521 
	C197.680786,72.839493 200.133606,73.927155 202.093170,75.172760 
	C204.739227,76.854744 206.723022,79.678688 209.465546,81.091255 
	C220.495270,86.772202 220.942505,96.478615 220.100067,106.958900 
	C219.882416,109.666710 218.774826,110.302078 216.368484,110.270248 
	C209.706131,110.182144 203.029877,110.001640 196.383041,110.334991 
	C192.677963,110.520790 190.610916,109.303734 190.280960,105.714401 
	C189.771637,100.173721 186.973541,98.198479 181.484863,98.916084 
	C177.881485,99.387199 174.166595,98.999130 170.501678,99.007607 
	C166.841690,99.016075 163.875107,100.106544 163.372894,104.265182 
	C162.856323,108.542671 165.079285,110.945076 170.063049,111.751175 
	C178.899216,113.180389 187.699158,115.290009 196.589020,115.792648 
	C204.326355,116.230133 208.537170,121.814194 214.247421,125.226616 
	C219.701523,128.485962 222.267319,133.030731 221.270370,139.649460 
	C220.706039,143.395996 220.747787,147.354111 221.257095,151.116699 
	C222.281540,158.684891 218.926941,163.267899 213.422592,168.349503 
	C204.373871,176.703262 194.885086,180.623627 182.534988,179.243774 
	C173.979202,178.287842 165.225891,179.209808 156.571030,178.951248 
	C154.480347,178.888794 152.095627,177.905991 150.422424,176.605133 
	C144.908707,172.318420 139.580963,167.779556 134.368057,163.128738 
	C133.192627,162.080063 132.187973,160.216660 132.108170,158.676331 
	C131.833206,153.368011 132.002396,148.036682 132.002396,142.025406 
	C141.054306,142.025406 149.975952,141.854874 158.872681,142.248184 
	C159.945801,142.295609 161.536560,145.311356 161.760208,147.092850 
	C162.383743,152.059921 164.741409,153.811157 169.681320,153.239487 
	C173.462219,152.801941 177.334320,153.160110 181.165833,153.150833 
	C188.966309,153.131943 191.203415,149.738434 188.264740,141.683990 
z" data-index="10"></path>
<path fill="#FDFDFD" opacity="1.000000" stroke="none" d="
M386.013245,86.027939 
	C387.231018,85.110115 388.362885,84.573265 389.067871,83.694115 
	C397.164062,73.597305 407.869537,71.275993 420.143219,72.576782 
	C425.906464,73.187569 431.868805,73.289772 437.595886,72.529556 
	C444.988892,71.548210 450.337067,74.561073 455.307190,79.261803 
	C456.516022,80.405090 457.629944,81.792122 459.063782,82.530769 
	C468.359497,87.319351 470.013977,95.074356 469.593109,104.874496 
	C468.857910,121.993782 469.502991,139.169113 469.249115,156.316208 
	C469.215820,158.564743 467.803436,161.313278 466.145355,162.914200 
	C462.089264,166.830505 457.184357,169.884674 453.238586,173.893661 
	C448.865204,178.337082 443.929199,179.354218 437.992645,179.157333 
	C427.347504,178.804291 416.680603,179.154144 406.026917,178.970627 
	C404.064880,178.936829 401.758301,178.234848 400.234711,177.043381 
	C394.080139,172.230469 388.060364,167.227081 382.249908,162.005646 
	C380.882690,160.777023 379.826660,158.429810 379.811371,156.587357 
	C379.641296,136.107635 379.868866,115.623711 379.584747,95.146530 
	C379.516388,90.219353 383.313080,88.938782 386.013245,86.027939 
M438.364532,127.500061 
	C438.364441,120.333450 438.252777,113.164490 438.403961,106.001076 
	C438.503174,101.299271 435.885895,99.310036 431.763092,99.073624 
	C427.111755,98.806900 422.419250,98.786934 417.771088,99.079552 
	C413.792206,99.330040 410.937531,101.005173 410.985168,105.830894 
	C411.118378,119.329445 411.127045,132.831192 410.979065,146.329437 
	C410.928925,150.901581 413.769592,152.670837 417.344666,153.033188 
	C422.128906,153.518066 427.022064,153.446091 431.825226,153.066620 
	C435.823639,152.750763 438.521118,150.652603 438.399536,145.998825 
	C438.247314,140.169556 438.363983,134.333237 438.364532,127.500061 
z" data-index="11" style="opacity: 1;"></path>
<path fill="#FCFCFC" opacity="1.000000" stroke="none" d="
M44.659866,80.651749 
	C50.436485,73.999580 57.296230,71.914459 65.747490,72.521049 
	C75.198784,73.199425 84.740295,72.528389 94.233353,72.784813 
	C96.505554,72.846191 98.999687,73.862587 100.934433,75.135063 
	C103.975250,77.134972 106.674690,79.671486 109.432465,82.079529 
	C112.552521,84.803909 117.456841,87.196747 118.235558,90.518929 
	C119.666481,96.623550 118.643684,103.303329 118.643684,110.225906 
	C109.673256,110.225906 101.200737,110.415092 92.755783,110.018097 
	C91.515915,109.959808 89.689941,107.249588 89.372192,105.536888 
	C88.427658,100.445808 86.175797,98.087547 80.672440,98.906403 
	C77.085175,99.440170 73.353050,98.951981 69.687668,99.020714 
	C64.413071,99.119614 62.053371,101.439278 62.043034,106.549728 
	C62.016735,119.549652 62.018219,132.549698 62.044304,145.549637 
	C62.054195,150.479523 64.634796,153.071869 69.606140,153.137634 
	C74.271988,153.199371 78.943565,153.030655 83.604332,153.196518 
	C86.359680,153.294571 87.635986,152.540512 88.372849,149.581329 
	C90.273491,141.948517 90.492043,142.002930 98.559830,142.002930 
	C105.052963,142.002914 111.546104,142.002930 118.764977,142.002930 
	C118.764977,148.285812 118.768883,154.375961 118.754036,160.466049 
	C118.753250,160.786148 118.698967,161.268219 118.492500,161.402435 
	C109.102455,167.506409 103.649246,179.712662 89.913925,179.146774 
	C79.431732,178.714905 68.915100,179.177750 58.419498,178.963348 
	C56.295227,178.919983 53.809223,178.118439 52.154259,176.819855 
	C45.606220,171.681854 39.248024,166.291397 33.007389,160.781662 
	C31.859594,159.768295 31.005644,157.769318 30.995535,156.218887 
	C30.862963,135.886444 30.850981,115.552422 31.006680,95.220322 
	C31.019760,93.512024 32.050430,91.387085 33.308472,90.193924 
	C36.802929,86.879707 40.666901,83.955093 44.659866,80.651749 
z" data-index="12"></path>
<path fill="#FCFCFC" opacity="1.000000" stroke="none" d="
M256.957367,86.031860 
	C259.907806,86.031860 262.364929,86.031860 265.023987,86.031860 
	C265.023987,96.696480 265.023987,106.932594 265.023987,117.519714 
	C254.716293,117.519714 244.520554,117.519714 233.964630,117.519714 
	C233.964630,107.193825 233.964630,96.966118 233.964630,86.031860 
	C241.332703,86.031860 248.898376,86.031860 256.957367,86.031860 
z" data-index="13"></path>
<path fill="#FCFCFC" opacity="1.000000" stroke="none" d="
M236.088272,167.178375 
	C234.939682,166.411316 233.724792,165.659790 233.714676,164.892410 
	C233.585846,155.109100 233.629776,145.323502 233.629776,135.216202 
	C244.139664,135.216202 254.220367,135.216202 264.772522,135.216202 
	C264.772522,145.525940 264.772522,156.038925 264.772522,167.186508 
	C255.415085,167.186508 245.998489,167.186508 236.088272,167.178375 
z" data-index="14"></path>
<path fill="#1E1D1D" opacity="1.000000" stroke="none" d="
M583.506714,91.531891 
	C571.361816,97.635124 559.548828,103.567947 547.735779,109.500778 
	C547.409607,109.209602 547.083374,108.918419 546.757202,108.627243 
	C549.279358,102.038902 551.759094,95.433937 554.338257,88.867981 
	C556.102173,84.377403 557.864685,79.874565 559.937683,75.524887 
	C560.493896,74.357887 562.416321,72.781754 563.319519,73.001930 
	C574.125610,75.636314 584.858704,78.570389 595.602905,81.455780 
	C595.857666,81.524185 596.020020,81.936569 597.165283,83.340919 
	C592.619080,86.076996 588.228760,88.719238 583.506714,91.531891 
z" data-index="15" style="opacity: 1;"></path>
<path fill="#221D1D" opacity="1.000000" stroke="none" d="
M640.361267,146.363922 
	C639.385437,151.063354 636.554260,153.085220 632.372986,153.898834 
	C626.532288,155.035339 620.742004,156.430618 614.392090,157.117386 
	C626.372375,138.172867 641.528137,121.830284 655.026611,104.216309 
	C655.410400,104.393036 655.794189,104.569756 656.177979,104.746483 
	C653.662842,111.531944 651.189331,118.333206 648.621094,125.098503 
	C645.967468,132.088379 643.221741,139.043304 640.361267,146.363922 
z" data-index="16" style="opacity: 1;"></path>
<path fill="#191E1F" opacity="1.000000" stroke="none" d="
M438.364563,128.000015 
	C438.363983,134.333237 438.247314,140.169556 438.399536,145.998825 
	C438.521118,150.652603 435.823639,152.750763 431.825226,153.066620 
	C427.022064,153.446091 422.128906,153.518066 417.344666,153.033188 
	C413.769592,152.670837 410.928925,150.901581 410.979065,146.329437 
	C411.127045,132.831192 411.118378,119.329445 410.985168,105.830894 
	C410.937531,101.005173 413.792206,99.330040 417.771088,99.079552 
	C422.419250,98.786934 427.111755,98.806900 431.763092,99.073624 
	C435.885895,99.310036 438.503174,101.299271 438.403961,106.001076 
	C438.252777,113.164490 438.364441,120.333450 438.364563,128.000015 
z" data-index="17" style="opacity: 1;"></path>
</svg>