<svg xmlns="http://www.w3.org/2000/svg" fill="none" viewBox="0 0 141 26" class="logo text-neutral0 d-none d-lg-block" data-v-9770534d=""><path fill="#8B4BFF" d="M24.7116 0H11.291L.667969 10.9378 18 26l17.3346-15.0622L24.7116 0ZM12.2821 14.4518l-4.68489-3.6974 4.68489-4.90898v8.60638Z"></path><path fill="currentColor" d="M50.78 20.2c-1.2267 0-2.2467-.2267-3.06-.68-.8-.4533-1.4067-1.0867-1.82-1.9-.4133-.8133-.64-1.76-.68-2.84-.0133-.5467-.02-1.1333-.02-1.76s.0067-1.2267.02-1.8c.04-1.08.2667-2.02667.68-2.84.4133-.81333 1.02-1.44667 1.82-1.9.8133-.45333 1.8333-.68 3.06-.68.92 0 1.7267.12667 2.42.38s1.2667.59333 1.72 1.02c.4667.42667.82.90667 1.06 1.44.24.52.3733 1.06.4 1.62.0133.12-.0267.22-.12.3-.08.08-.18.12-.3.12h-1.1c-.12 0-.2267-.0333-.32-.1-.08-.0667-.14-.1867-.18-.36-.2267-1.04-.6533-1.75333-1.28-2.14-.6133-.38667-1.38-.58-2.3-.58-1.08 0-1.9333.30667-2.56.92-.6267.6-.96 1.56667-1 2.9-.04 1.0933-.04 2.2133 0 3.36.04 1.3333.3733 2.3067 1 2.92.6267.6 1.48.9 2.56.9.92 0 1.6867-.1933 2.3-.58.6267-.3867 1.0533-1.1 1.28-2.14.04-.1733.1-.2933.18-.36.0933-.0667.2-.1.32-.1h1.1c.12 0 .22.04.3.12.0933.0667.1333.16.12.28-.0267.56-.16 1.1067-.4 1.64-.24.5333-.5933 1.0133-1.06 1.44-.4533.4267-1.0267.7667-1.72 1.02-.6933.2533-1.5.38-2.42.38Zm12.7803 0c-1.16 0-2.1333-.18-2.92-.54-.7867-.36-1.3933-.82-1.82-1.38-.4133-.5733-.6333-1.1733-.66-1.8 0-.1067.04-.2.12-.28.0933-.0933.2-.14.32-.14h1.02c.16 0 .28.04.36.12.08.08.1333.1733.16.28.08.32.2467.64.5.96.2533.3067.6133.5667 1.08.78.48.2 1.0933.3 1.84.3 1.1467 0 1.9867-.2 2.52-.6.5467-.4133.82-.96.82-1.64 0-.4667-.1467-.84-.44-1.12-.28-.2933-.7133-.5533-1.3-.78s-1.3467-.4733-2.28-.74c-.9733-.28-1.78-.5867-2.42-.92-.64-.3333-1.12-.7467-1.44-1.24-.3067-.4933-.46-1.12-.46-1.88 0-.72.1933-1.36.58-1.92.3867-.57333.9467-1.02667 1.68-1.36.7333-.33333 1.6133-.5 2.64-.5.8267 0 1.5467.11333 2.16.34.6267.21333 1.1467.50667 1.56.88.4133.36.7267.75333.94 1.18.2133.41333.3267.82.34 1.22 0 .09333-.0333.18667-.1.28-.0667.08-.1733.12-.32.12h-1.06c-.0933 0-.1933-.02667-.3-.08-.0933-.05333-.1667-.15333-.22-.3-.08-.54667-.3867-1.00667-.92-1.38-.5333-.37333-1.2267-.56-2.08-.56-.8667 0-1.5733.16667-2.12.5-.5333.33333-.8.85333-.8 1.56 0 .4533.1267.8333.38 1.14.2533.2933.6533.5533 1.2.78s1.26.4667 2.14.72c1.0667.2933 1.94.6067 2.62.94.68.32 1.18.7267 1.5 1.22.3333.48.5 1.1.5 1.86 0 .84-.22 1.56-.66 2.16-.44.5867-1.06 1.04-1.86 1.36-.7867.3067-1.72.46-2.8.46Zm13.0414 0c-1.1866 0-2.1933-.22-3.02-.66-.8133-.44-1.44-1.06-1.88-1.86-.4266-.8-.6666-1.74-.72-2.82-.0133-.5867-.02-1.2067-.02-1.86 0-.6667.0067-1.3.02-1.9.0534-1.08.2934-2.01333.72-2.8.44-.8 1.0734-1.41333 1.9-1.84.8267-.44 1.8267-.66 3-.66.9334 0 1.7467.13333 2.44.4.6934.26667 1.26.60667 1.7 1.02.4534.4.7867.82 1 1.26.2267.44.3467.82667.36 1.16.0134.12-.02.22-.1.3-.08.0667-.1866.1-.32.1h-1.18c-.1333 0-.2333-.0267-.3-.08-.0533-.05333-.1066-.14667-.16-.28-.12-.34667-.32-.68667-.6-1.02-.2666-.33333-.6333-.60667-1.1-.82-.4533-.22667-1.0333-.34-1.74-.34-1.0666 0-1.9266.28667-2.58.86-.64.57333-.9866 1.52-1.04 2.84-.04 1.1867-.04 2.3733 0 3.56.0534 1.3333.4067 2.2933 1.06 2.88.6534.5733 1.5067.86 2.56.86.7067 0 1.3334-.1333 1.88-.4.56-.2667 1-.6667 1.32-1.2.32-.5467.48-1.24.48-2.08v-.84h-3c-.1333 0-.2466-.04-.34-.12-.08-.0933-.12-.2133-.12-.36v-.64c0-.1467.04-.26.12-.34.0934-.0933.2067-.14.34-.14h4.52c.1467 0 .26.0467.34.14.08.08.12.1933.12.34v1.92c0 1.0933-.2266 2.0467-.68 2.86-.44.8133-1.0866 1.4467-1.94 1.9-.8533.44-1.8666.66-3.04.66Zm13.5533 0c-1.1467 0-2.1267-.1933-2.94-.58-.8133-.4-1.44-1.0067-1.88-1.82-.44-.8267-.6867-1.86-.74-3.1-.0133-.5867-.02-1.1467-.02-1.68 0-.5467.0067-1.1133.02-1.7.0533-1.2267.3067-2.24667.76-3.06.4667-.82667 1.1067-1.44 1.92-1.84.8267-.41333 1.7867-.62 2.88-.62 1.08 0 2.0267.20667 2.84.62.8267.4 1.4733 1.01333 1.94 1.84.4667.81333.72 1.8333.76 3.06.0267.5867.04 1.1533.04 1.7 0 .5333-.0133 1.0933-.04 1.68-.04 1.24-.2867 2.2733-.74 3.1-.44.8133-1.0667 1.42-1.88 1.82-.8133.3867-1.7867.58-2.92.58Zm0-1.7c1.0133 0 1.84-.3067 2.48-.92.6533-.6133 1.0067-1.6067 1.06-2.98.0267-.6.04-1.1333.04-1.6 0-.48-.0133-1.0133-.04-1.6-.0267-.92-.2-1.66667-.52-2.24-.3067-.57333-.72-.99333-1.24-1.26-.52-.26667-1.1133-.4-1.78-.4-.6667 0-1.26.13333-1.78.4s-.94.68667-1.26 1.26c-.3067.57333-.48 1.32-.52 2.24-.0133.5867-.02 1.12-.02 1.6 0 .4667.0067 1 .02 1.6.0533 1.3733.4067 2.3667 1.06 2.98.6533.6133 1.4867.92 2.5.92Zm13.855 1.7c-1.253 0-2.327-.2067-3.22-.62-.8798-.4267-1.5665-1.04-2.0598-1.84-.48-.8133-.74-1.7933-.78-2.94-.0134-.5733-.02-1.1867-.02-1.84s.0066-1.2733.02-1.86c.04-1.12.3-2.07333.78-2.86.4933-.78667 1.1866-1.38667 2.0798-1.8.907-.42667 1.973-.64 3.2-.64.987 0 1.853.12667 2.6.38.747.25333 1.373.58667 1.88 1 .52.4.907.84 1.16 1.32.267.48.407.94667.42 1.4 0 .12-.04.22-.12.3-.08.08-.187.12-.32.12h-2.48c-.133 0-.24-.0267-.32-.08-.067-.0533-.127-.1333-.18-.24-.093-.22667-.247-.46667-.46-.72-.2-.25333-.473-.46-.82-.62-.347-.17333-.8-.26-1.36-.26-.84 0-1.507.22-2 .66-.48.44-.74 1.1533-.78 2.14-.04 1.1467-.04 2.3133 0 3.5.04 1.0267.313 1.7667.82 2.22.507.4533 1.173.68 2 .68.547 0 1.033-.0933 1.46-.28.44-.2.787-.5 1.04-.9.253-.4133.38-.94.38-1.58v-.5h-2.18c-.133 0-.247-.0467-.34-.14-.093-.1067-.14-.2267-.14-.36v-1.28c0-.1467.047-.2667.14-.36.093-.0933.207-.14.34-.14h4.92c.147 0 .267.0467.36.14.093.0933.14.2133.14.36v2.18c0 1.1467-.253 2.1267-.76 2.94-.507.8133-1.227 1.44-2.16 1.88-.92.4267-2 .64-3.24.64Zm9.059-.2c-.133 0-.246-.0467-.34-.14-.093-.0933-.14-.2133-.14-.36v-13c0-.14667.047-.26667.14-.36.094-.09333.207-.14.34-.14h9.08c.147 0 .267.04667.36.14.094.09333.14.21333.14.36v1.6c0 .14667-.046.26667-.14.36-.093.09333-.213.14-.36.14h-6.48v3.12h6.04c.147 0 .267.0467.36.14.094.0933.14.2133.14.36v1.48c0 .1333-.046.2533-.14.36-.093.0933-.213.14-.36.14h-6.04v3.2h6.64c.147 0 .267.0467.36.14.094.0933.14.2133.14.36v1.6c0 .1467-.046.2667-.14.36-.093.0933-.213.14-.36.14h-9.24Zm12.638 0c-.147 0-.267-.0467-.36-.14-.094-.0933-.14-.2133-.14-.36v-13c0-.14667.046-.26667.14-.36.093-.09333.213-.14.36-.14h1.88c.2 0 .346.05333.44.16.106.10667.173.18667.2.24l3.7 6.76 3.7-6.76c.026-.05333.086-.13333.18-.24.106-.10667.26-.16.46-.16h1.86c.146 0 .266.04667.36.14.093.09333.14.21333.14.36v13c0 .1467-.047.2667-.14.36-.094.0933-.214.14-.36.14h-2.04c-.134 0-.247-.0467-.34-.14-.094-.0933-.14-.2133-.14-.36v-8.06l-2.54 4.74c-.054.12-.134.2267-.24.32-.107.0933-.254.14-.44.14h-.94c-.174 0-.314-.0467-.42-.14-.107-.0933-.194-.2-.26-.32l-2.52-4.74v8.06c0 .1467-.047.2667-.14.36-.094.0933-.214.14-.36.14h-2.04Z"></path></svg>