<svg width="123" height="32" viewBox="0 0 123 32" fill="none" xmlns="http://www.w3.org/2000/svg">
<path d="M19.862 15.998C19.367 18.794 18.646 20.233 14.986 20.233H14.904L18.749 25.441C18.924 25.669 18.749 25.99 18.481 25.99H13.945C13.481 25.99 13.275 25.896 13.059 25.565L9.719 20.481H5.874L5.008 25.451C4.957 25.803 4.72 26 4.338 26H0.503998C0.132998 26 -0.0430023 25.803 0.00899769 25.451L2.885 9.082C2.967 8.73 3.184 8.533 3.555 8.533H17.058C19.512 8.533 20.594 9.38301 20.594 11.329C20.594 11.702 20.563 12.105 20.501 12.529L19.872 16H19.862V15.998ZM7.214 12.551L6.524 16.568H13.121C14.553 16.568 14.811 16.247 15.027 15.046L15.203 13.979C15.254 13.699 15.285 13.482 15.285 13.306C15.285 12.675 14.935 12.561 13.822 12.561H7.214V12.551ZM34.808 23.029H26.458L25.098 25.472C24.922 25.824 24.644 25.99 24.232 25.99H20.016C19.696 25.99 19.562 25.741 19.769 25.42L29.427 9.061C29.623 8.709 29.891 8.544 30.344 8.544H35.994C36.416 8.544 36.622 8.72 36.684 9.061L40.642 25.421C40.694 25.741 40.518 25.99 40.219 25.99H36.034C35.581 25.99 35.395 25.814 35.313 25.472L34.797 23.028H34.807L34.808 23.029ZM28.664 19.115H33.973L32.478 12.561L28.674 19.115H28.664ZM47.64 25.451C47.589 25.803 47.352 26 46.97 26H43.126C42.755 26 42.579 25.803 42.631 25.451L45.507 9.092C45.589 8.74 45.806 8.544 46.177 8.544H50.022C50.392 8.544 50.589 8.74 50.517 9.092L47.64 25.451ZM71.144 15.915C71.588 15.915 71.691 16.123 71.608 16.547L70.052 25.441C70 25.793 69.784 25.99 69.412 25.99H63.125C62.723 25.99 62.485 25.865 62.403 25.534L57.971 12.52L55.693 25.43C55.641 25.783 55.404 25.98 55.053 25.98H51.58C51.209 25.98 51.033 25.783 51.085 25.43L53.961 9.072C54.043 8.72 54.26 8.533 54.631 8.533H60.919C61.321 8.533 61.548 8.647 61.64 8.979L66.145 22.231L67.175 16.423C67.248 16.091 67.403 15.915 67.732 15.915H71.155H71.144ZM83.245 15.926C83.069 15.926 82.905 15.946 82.74 15.978C82.214 16.091 81.812 16.537 81.72 17.075L80.853 22.003C80.7736 22.3985 80.7325 22.8007 80.73 23.204C80.73 25.151 81.894 26 84.317 26H94.573C98.366 26 98.789 25.027 99.305 22.086L100.315 16.35C100.397 15.998 100.222 15.926 99.851 15.926H90.914C90.543 15.926 90.316 16.123 90.244 16.475L89.862 18.566C89.78 18.918 89.955 19.115 90.326 19.115H94.81L94.44 21.217C94.357 21.734 94.068 21.993 93.49 21.993H87.76C86.471 21.993 86.08 21.89 86.08 21.113C86.08 20.937 86.11 20.709 86.162 20.44L86.76 16.971C86.842 16.454 86.42 15.926 85.894 15.926H83.245ZM88.246 8.875C88.2623 8.78548 88.3095 8.70448 88.3792 8.64604C88.449 8.5876 88.537 8.55539 88.628 8.555H97.638C100.142 8.555 101.379 8.99901 101.152 10.956L101.059 11.971C101.041 12.1351 100.962 12.2866 100.838 12.3957C100.714 12.5048 100.554 12.5637 100.389 12.561H88.061C88.0045 12.5605 87.9487 12.5477 87.8977 12.5236C87.8466 12.4994 87.8013 12.4645 87.7651 12.4211C87.7289 12.3777 87.7025 12.327 87.6878 12.2724C87.6731 12.2178 87.6704 12.1607 87.68 12.105L88.246 8.875ZM122.891 11.96C122.874 12.1253 122.795 12.2783 122.672 12.3891C122.548 12.5 122.387 12.5609 122.221 12.56H111.294C109.686 12.56 109.336 12.81 109.088 14.155L107.996 20.388C107.944 20.668 107.913 20.885 107.913 21.061C107.913 21.838 108.336 21.983 109.624 21.983H115.325C115.892 21.983 116.191 21.734 116.273 21.206L116.654 19.104H112.181C111.81 19.104 111.634 18.908 111.717 18.556L112.078 16.443C112.16 16.092 112.377 15.895 112.748 15.895H121.674C122.046 15.895 122.221 16.092 122.138 16.444L121.138 22.076C120.623 25.016 120.19 25.99 116.407 25.99H106.151C103.718 25.99 102.563 25.14 102.563 23.194C102.563 22.821 102.615 22.418 102.687 21.994L104.357 12.52C104.821 9.73401 105.584 8.533 109.202 8.533H119.458C121.963 8.533 123.2 9.10301 122.973 11.06L122.88 11.95L122.891 11.96Z" fill="black"/>
<path d="M70.721 11.701C70.257 11.639 69.814 11.215 69.907 10.739L70.01 10.293C70.03 10.2 70.072 10.034 70.123 9.96199C70.257 9.74499 70.463 9.64099 70.763 9.60999L73.123 9.25799C77.195 8.95799 76.762 6.96999 77.36 5.43799L78.298 2.59999C78.38 2.21599 78.618 1.99899 79.029 1.99899H79.741C80.153 1.99899 80.37 2.21599 80.287 2.59899L80.122 5.48899C79.916 7.76599 80.142 8.79099 82.482 9.11199L85.049 9.62999C85.049 9.62999 85.771 9.74399 85.668 10.385L85.513 11.11C85.4879 11.2583 85.4108 11.3929 85.2955 11.4896C85.1803 11.5863 85.0344 11.6389 84.884 11.638L82.369 11.959C79.999 12.177 79.359 11.929 78.576 14.838L77.566 18.472C77.514 18.855 77.246 19.072 76.834 19.072H75.834C75.422 19.072 75.226 18.855 75.288 18.472L75.576 14.931C75.7 12.663 74.896 12.332 72.927 12.063L70.711 11.69L70.721 11.7V11.701Z" fill="#F6AF16"/>
</svg>
